#!OML:ASF Y:\EmotionMaleHayes\Project 1\Capture day 1\Session 1\Male1.ASF
:FULLY-SPECIFIED
:DEGREES
963
root 6.78032 17.7177 0.371406 -255.147 87.5498 -250.103
lowerback 10.3181 1.04581 -4.07419
upperback -0.951579 0.874722 -0.244856
thorax -6.86487 0.579678 1.89651
lowerneck -26.058 1.58566 3.08586
upperneck 19.5574 1.34487 -1.25227
head 10.5965 0.698002 -0.734828
rclavicle -5.82921e-015 2.11209e-015
rhumerus -19.8398 -24.6561 -5.00012
rradius 33.662
rwrist -7.72747
rhand -10.8204 -38.326
rfingers 7.12502
rthumb 15.1935 -67.7481
lclavicle -5.82921e-015 2.11209e-015
lhumerus -10.4148 32.2558 7.51274
lradius 24.7749
lwrist -8.45772
lhand -16.8278 -21.9631
lfingers 7.12502
lthumb 9.40151 7.80718
rfemur 16.5446 -6.76822 8.01415
rtibia -0.0455676
rfoot -11.4087 -0.214526
rtoes 5.92093
lfemur 17.9306 -1.8908 -14.1677
ltibia -4.70983
lfoot -9.39562 9.98819
ltoes -1.99404
964
root 6.78324 17.7148 0.367525 -256.53 87.4788 -251.484
lowerback 10.2695 1.02897 -4.19225
upperback -0.936215 0.840731 -0.240706
thorax -6.8209 0.566624 1.97358
lowerneck -25.9753 1.63567 3.03335
upperneck 19.5982 1.42316 -1.19257
head 10.5979 0.738286 -0.692071
rclavicle 3.49679e-015 1.54493e-014
rhumerus -19.684 -24.5987 -5.22604
rradius 33.6148
rwrist -7.623
rhand -10.5954 -38.0938
rfingers 7.12502
rthumb 15.4102 -67.4994
lclavicle 3.49679e-015 1.54493e-014
lhumerus -10.5171 32.4815 7.58724
lradius 24.7373
lwrist -8.50789
lhand -16.6693 -22.0095
lfingers 7.12502
lthumb 9.55441 7.75391
rfemur 16.5428 -6.73992 7.88669
rtibia 0.0240093
rfoot -11.5087 -0.160213
rtoes 5.95044
lfemur 17.9573 -1.98001 -14.3371
ltibia -4.70091
lfoot -9.52123 10.0705
ltoes -1.82376
965
root 6.78584 17.7131 0.364093 -257.2 87.451 -252.159
lowerback 10.2524 1.04593 -4.20685
upperback -0.953916 0.859655 -0.276513
thorax -6.83097 0.576208 1.94099
lowerneck -25.8947 1.63615 2.86589
upperneck 19.6742 1.41805 -0.901148
head 10.6078 0.762195 -0.560252
rclavicle -2.69563e-015 1.07468e-014
rhumerus -19.7963 -24.1668 -5.36193
rradius 33.7125
rwrist -7.83186
rhand -10.3098 -37.8223
rfingers 7.12502
rthumb 15.6853 -67.2066
lclavicle -2.69563e-015 1.07468e-014
lhumerus -10.439 32.6639 7.78234
lradius 24.7608
lwrist -8.71228
lhand -16.7135 -21.8169
lfingers 7.12502
lthumb 9.51179 7.94838
rfemur 16.519 -6.68535 7.8425
rtibia 0.0961348
rfoot -11.5937 -0.187557
rtoes 5.89298
lfemur 17.8934 -2.11699 -14.4616
ltibia -4.53491
lfoot -9.70235 10.2264
ltoes -1.44684
966
root 6.78673 17.713 0.360501 -257.229 87.4431 -252.202
lowerback 10.2424 1.06773 -4.18331
upperback -0.990784 0.887503 -0.333244
thorax -6.86504 0.589 1.86312
lowerneck -25.7299 1.61025 2.85438
upperneck 19.7221 1.36174 -0.773818
head 10.5942 0.753751 -0.522021
rclavicle -8.07407e-015 4.44781e-015
rhumerus -20.0277 -23.674 -5.46896
rradius 33.8445
rwrist -7.96537
rhand -9.96843 -37.7138
rfingers 7.12502
rthumb 16.014 -67.0719
lclavicle -8.07407e-015 4.44781e-015
lhumerus -10.2975 32.8066 7.93255
lradius 24.7403
lwrist -8.96296
lhand -16.581 -21.6986
lfingers 7.12502
lthumb 9.63966 8.06089
rfemur 16.4934 -6.67394 7.82615
rtibia 0.0797833
rfoot -11.5108 -0.223017
rtoes 6.25194
lfemur 17.81 -2.13973 -14.4995
ltibia -4.38762
lfoot -9.77142 10.2629
ltoes -1.21014
967
root 6.78639 17.7113 0.356926 -257.391 87.5057 -252.358
lowerback 10.2357 1.07682 -4.09072
upperback -0.99224 0.909175 -0.370172
thorax -6.86169 0.595399 1.76861
lowerneck -25.6079 1.61114 2.88671
upperneck 19.7695 1.34247 -0.718188
head 10.5896 0.756004 -0.510694
rclavicle -6.93262e-015 7.40473e-015
rhumerus -20.1574 -23.4066 -5.61407
rradius 33.8806
rwrist -7.82629
rhand -9.8868 -37.7131
rfingers 7.12502
rthumb 16.0927 -67.0649
lclavicle -6.93262e-015 7.40473e-015
lhumerus -10.2197 32.8048 7.97139
lradius 24.7106
lwrist -9.05878
lhand -16.1811 -21.7767
lfingers 7.12502
lthumb 10.0254 7.96449
rfemur 16.4817 -6.67448 7.88391
rtibia 0.116664
rfoot -11.477 -0.239018
rtoes 6.55866
lfemur 17.8079 -2.18093 -14.4561
ltibia -4.3842
lfoot -9.79763 10.3146
ltoes -1.68097
968
root 6.7871 17.7089 0.355153 -259.127 87.5787 -254.079
lowerback 10.2576 1.11124 -4.05691
upperback -0.987353 0.958119 -0.373895
thorax -6.87128 0.618099 1.73746
lowerneck -25.6893 1.64107 2.90433
upperneck 19.9852 1.37222 -0.699277
head 10.6841 0.775328 -0.501241
rclavicle -5.18704e-016 -1.39149e-015
rhumerus -20.2124 -23.051 -5.76814
rradius 33.8844
rwrist -7.69174
rhand -9.88806 -37.5359
rfingers 7.12502
rthumb 16.0914 -66.8878
lclavicle -5.18704e-016 -1.39149e-015
lhumerus -10.2158 32.3214 8.01914
lradius 24.745
lwrist -8.70335
lhand -15.8412 -21.7438
lfingers 7.12502
lthumb 10.3533 7.98134
rfemur 16.4632 -6.58319 7.9658
rtibia 0.142419
rfoot -11.5452 -0.313396
rtoes 6.09256
lfemur 17.8492 -2.19801 -14.4095
ltibia -4.4115
lfoot -9.84247 10.3917
ltoes -2.00868
969
root 6.78794 17.7069 0.353987 -260.744 87.7049 -255.667
lowerback 10.2727 1.1362 -4.00936
upperback -0.93062 1.00022 -0.343898
thorax -6.82159 0.635975 1.73587
lowerneck -25.8703 1.69283 3.03875
upperneck 20.1399 1.41536 -0.808587
head 10.7764 0.791968 -0.554866
rclavicle 6.14679e-015 4.27387e-015
rhumerus -20.1601 -23.0787 -5.918
rradius 33.7852
rwrist -7.18534
rhand -9.46849 -37.1207
rfingers 7.12502
rthumb 16.4954 -66.4394
lclavicle 6.14679e-015 4.27387e-015
lhumerus -10.2724 31.9102 8.04059
lradius 24.7826
lwrist -8.46024
lhand -15.578 -21.5454
lfingers 7.12502
lthumb 10.6073 8.16686
rfemur 16.4562 -6.51744 8.10706
rtibia 0.0390768
rfoot -11.4773 -0.402165
rtoes 5.08527
lfemur 17.8928 -2.10822 -14.2479
ltibia -4.37005
lfoot -9.89525 10.3855
ltoes -2.00407
